<mxfile host="app.diagrams.net" modified="2023-10-27T14:19:58.589Z" agent="Mozilla/5.0 (Macintosh; Intel Mac OS X 10_15_7) AppleWebKit/605.1.15 (KHTML, like Gecko) Version/16.6 Safari/605.1.15" version="22.0.8" etag="Tfbi_awhJoxaNir6rPA_" type="github">
  <diagram name="Page-1" id="rLZjb8k3cHlmz5gFUcPG">
    <mxGraphModel>
      <root>
        <mxCell id="0" />
        <mxCell id="1" parent="0" />
      </root>
    </mxGraphModel>
  </diagram>
</mxfile>
